# xmcd
#
# Track frame offsets:
#	150
#	13847
#	28109
#	38983
#	53916
#	66103
#	84042
#	102180
#	116271
#	131862
#	145652
#	161459
#	177423
#	192557
#	206516
#	219942
#	235734
#	256533
#	270680
#	287225
#
# Disc length: 4009 seconds
#
# Revision: 1
# Processed by: cddbd v1.4PL0 Copyright (c) Steve Scherf et al.
# Submitted via: audiograbber 1.80
#
DISCID=190fa714
DTITLE=Various Artist - Hott Country 010
DYEAR=1900
DGENRE=
TTITLE0=Reba McEntire - The Fear Of Being Alone
TTITLE1=Terri Clark - Poor, Poor Pitiful Me
TTITLE2=Randy Travis - Would I
TTITLE3=Lee Roy Parnell - We All Get Lucky Sometimes
TTITLE4=Mark Chestnutt - It's A Little Too Late
TTITLE5=Mindy McCready - Maybe He'll Notice Her Now
TTITLE6=Faith Hill - I Can't Do That Anymore
TTITLE7=Bryan White - That's Another Song
TTITLE8=Daryle Singletary - Amen Kind Of Love
TTITLE9=Rick Tippe - The Craziest Thing
TTITLE10=Lisa Brokop - West Of  Crazy
TTITLE11=Farmers Daughter - Cornfields And Cadillacs
TTITLE12=Blackhawk - King Of The World
TTITLE13=Rick Trevino - Running Out Of Reasons To Run
TTITLE14=Chris Isaak - Think Of Tomorrow
TTITLE15=K.T. Oslin - Silver Tongue And Goldplated Lies
TTITLE16=Dolly Parton - And When I Needed You Most
TTITLE17=Aaron Tippin - How's The Radio Know
TTITLE18=Emilio - Have I Told You Lately
TTITLE19=Michelle Wright - Crank My Tractor
EXTD=
EXTT0=
EXTT1=
EXTT2=
EXTT3=
EXTT4=
EXTT5=
EXTT6=
EXTT7=
EXTT8=
EXTT9=
EXTT10=
EXTT11=
EXTT12=
EXTT13=
EXTT14=
EXTT15=
EXTT16=
EXTT17=
EXTT18=
EXTT19=
PLAYORDER=
